<svg width="96" height="96" viewBox="0 0 96 96" fill="none" xmlns="http://www.w3.org/2000/svg">
<rect width="96" height="96" fill="#FDFCFC"/>
<path d="M35.8825 73.3582C35.9655 76.2183 35.225 79.042 33.7492 81.4933C32.2305 83.9234 29.9426 85.7757 27.2497 86.7555C25.3202 87.5045 22.4426 87.8767 18.6168 87.8719H8.53322C8.12077 87.8719 7.91455 87.7653 7.91455 87.5448C7.91455 87.3244 8.29855 87.1395 9.07366 87.1679C10.2541 87.1679 10.9723 86.9902 11.207 86.5493C11.3724 85.7211 11.4274 84.8746 11.3706 84.0319V62.9831C11.4346 62.232 11.35 61.4757 11.1217 60.7573C10.8443 60.2595 10.1474 60.0462 8.98833 60.0462C8.38388 60.0462 8.07811 59.9324 8.07811 59.6337C8.07811 59.3351 8.27011 59.2568 8.65411 59.2568H9.36522C11.015 59.2568 12.6126 59.2711 14.1581 59.2995C16.3626 59.3279 18.0692 59.3422 19.2781 59.3422C24.2938 59.3422 28.1362 60.3756 30.8052 62.4426C34.1948 65.0358 35.8873 68.6743 35.8825 73.3582ZM28.7359 73.3582C28.7359 68.8071 28.0627 65.4767 26.7163 63.3671C25.37 61.2574 23.2485 60.2026 20.3519 60.2026C19.645 60.1402 18.9338 60.2551 18.2825 60.5368C17.8417 60.8165 17.6212 61.4636 17.6212 62.4782V83.6622C17.6212 85.4826 17.735 86.5066 17.9554 86.6844C18.2826 86.9902 19.015 87.1395 20.1457 87.1395C25.8725 87.149 28.7359 82.5599 28.7359 73.3724V73.3582Z" fill="#1D1D1B"/>
<path d="M52.2808 83.4627C52.2808 83.7899 52.2808 84.0672 52.2808 84.2876C52.2178 84.8947 52.1917 85.505 52.2026 86.1152V87.9427C50.0029 87.8574 46.0277 87.8147 40.2772 87.8147H39.1963C38.4426 87.8147 38.0657 87.7436 38.0657 87.6014C38.0657 87.4521 38.1866 87.381 38.4212 87.381C38.9954 87.4331 39.5717 87.3065 40.071 87.0183C40.2275 86.8832 40.3057 86.4707 40.3057 85.7881V71.8218C40.3423 71.4542 40.2886 71.0831 40.1492 70.741C40.0263 70.6119 39.8747 70.5137 39.7066 70.4543C39.5385 70.395 39.3588 70.3763 39.1821 70.3996H38.5279C38.3359 70.3996 38.2435 70.3356 38.2435 70.2076C38.2435 70.0796 38.3643 70.0156 38.6061 70.0156H45.8381C46.0088 70.0156 46.1012 70.0867 46.1012 70.2218C46.1012 70.357 45.8737 70.4565 45.4257 70.4565C44.7928 70.4565 44.423 70.5276 44.3092 70.6841C44.1361 71.3472 44.0784 72.0352 44.1386 72.7178V78.8476C44.1386 80.0992 44.1741 82.9057 44.2452 87.2672C44.5723 87.2672 44.9563 87.2672 45.3546 87.2672C46.6026 87.3015 47.8513 87.2325 49.0879 87.061C49.5662 86.9962 50.0202 86.8108 50.4071 86.5222C50.794 86.2336 51.1011 85.8512 51.2995 85.4112C51.5729 84.7251 51.7639 84.009 51.8683 83.2778C51.9181 83.0005 51.9963 82.8654 52.0959 82.8654C52.1955 82.8654 52.2808 83.0858 52.2808 83.4627Z" fill="#1D1D1B"/>
<path d="M70.3999 82.2968C70.3999 82.4532 70.0799 82.5315 69.4328 82.5101C68.6719 82.5101 68.2594 82.6666 68.2097 83.0221C68.1741 83.2283 68.1599 83.9039 68.1599 85.0488V86.1012C66.4676 87.3659 64.4325 88.0897 62.3217 88.1777C61.1785 88.2038 60.0427 87.9879 58.9887 87.5443C57.9348 87.1007 56.9865 86.4393 56.2061 85.6035C55.394 84.7518 54.7585 83.7478 54.3362 82.6494C53.9139 81.551 53.7132 80.3798 53.7457 79.2035C53.6651 76.7028 54.5719 74.271 56.2701 72.4337C57.0635 71.5511 58.0373 70.8492 59.1255 70.3756C60.2138 69.902 61.391 69.6678 62.5777 69.6888C63.7014 69.7069 64.8078 69.9689 65.8203 70.4568C66.0854 70.6021 66.3745 70.6984 66.6737 70.7412C66.9439 70.7412 67.1786 70.535 67.3848 70.1226C67.4701 69.9164 67.5697 69.8168 67.6692 69.8168C67.7688 69.8168 67.8541 69.9021 67.8541 70.0728C67.8541 70.0728 67.8541 70.4497 67.7759 71.1039C67.7759 71.3101 67.7759 71.815 67.7759 72.5688C67.7759 73.1519 67.7759 74.0479 67.8826 75.2497C67.8826 75.5768 67.7901 75.7404 67.6194 75.7404C67.4488 75.7404 67.2212 75.3919 67.1288 74.7092C67.0064 73.4005 66.4879 72.1602 65.6426 71.1537C65.3254 70.8289 64.9423 70.5758 64.5191 70.4114C64.096 70.247 63.6425 70.1752 63.1892 70.2008C59.9371 70.2008 58.311 73.0855 58.311 78.855C58.311 82.4485 58.8467 84.9469 59.9181 86.3501C60.2195 86.7722 60.6192 87.1145 61.0826 87.3475C61.546 87.5804 62.0591 87.6969 62.5777 87.687C63.9999 87.687 64.711 86.7981 64.711 85.0132C64.7732 84.2575 64.7156 83.4967 64.5403 82.759C64.4266 82.5955 64.135 82.5101 63.6657 82.5101H63.0186C62.6488 82.5101 62.471 82.4319 62.471 82.2826C62.471 82.1332 62.6132 82.0479 62.9048 82.0479C63.5092 82.0479 64.263 82.0479 65.1732 82.0479H70.0941C70.3074 82.0763 70.3999 82.1475 70.3999 82.2968Z" fill="#1D1D1B"/>
<path d="M88.1778 87.5588C88.1839 87.6162 88.1671 87.6737 88.1312 87.7189C88.0953 87.7641 88.0431 87.7934 87.9859 87.8005C87.6556 87.8399 87.3227 87.8542 86.9903 87.8432H85.8312C84.5654 87.8432 83.6979 87.7934 83.2072 87.7934C82.7165 87.7934 82.1405 87.7934 81.7139 87.7934C80.8534 87.7934 80.2916 87.8432 79.9645 87.8432C79.5023 87.8432 79.2534 87.7579 79.2534 87.5872C79.2534 87.4165 79.7441 87.317 80.7183 87.3028C80.9021 87.3063 81.0857 87.2896 81.2658 87.253C81.5361 87.253 81.6712 87.1108 81.6712 86.9401C81.5974 86.5724 81.4952 86.211 81.3654 85.8592L80.825 84.1881C80.7183 83.8112 80.4978 83.1143 80.1565 82.0974H77.6818C76.9707 82.0974 76.1956 82.0974 75.3921 82.0974C75.2356 82.4388 74.9441 83.2139 74.5174 84.4156L73.9485 86.0868C73.8744 86.2852 73.8313 86.4939 73.8205 86.7054C73.8205 86.997 74.0125 87.189 74.3894 87.2743C74.4747 87.2743 74.8943 87.3241 75.6481 87.3739C75.8898 87.3739 76.0107 87.4663 76.0107 87.5943C76.0107 87.7223 75.8543 87.8148 75.5485 87.8148H70.9476C70.7058 87.8148 70.585 87.7294 70.585 87.5588C70.585 87.4521 70.8552 87.381 71.3885 87.3525C71.8584 87.3918 72.3257 87.2521 72.697 86.9614C73.0938 86.2912 73.4066 85.5747 73.6285 84.8281C73.9485 83.9748 74.425 82.6948 75.0507 81.0165L78.1654 72.4405C78.3218 72.0636 78.5352 71.4734 78.8054 70.6628C78.9974 70.0868 79.1396 69.7881 79.2463 69.7881C79.353 69.7881 79.5378 70.1863 79.8152 70.9756C80.1565 71.9854 81.6664 75.9866 84.345 82.9792C84.6863 83.8681 85.0561 84.7783 85.3761 85.7028C85.5188 86.2536 85.8235 86.7491 86.2507 87.125C86.7635 87.3058 87.3108 87.3666 87.8507 87.3028C88.0427 87.3241 88.1778 87.4023 88.1778 87.5588ZM79.9859 81.5356C79.9859 81.4788 79.9147 81.3223 79.8081 81.045C79.1207 79.0539 78.6205 77.6553 78.3076 76.8494C78.2294 76.6219 78.1085 76.2948 77.9663 75.8681L77.7885 75.4059C77.4827 76.117 77.0774 77.1694 76.665 78.4708C76.1672 79.9285 75.8045 80.9525 75.5841 81.5356H79.9859Z" fill="#1D1D1B"/>
<path d="M96 96H0V0H96V96ZM1.216 94.784H94.784V1.216H1.216V94.784Z" fill="#1D1D1B"/>
</svg>
