<svg width="96" height="96" viewBox="0 0 96 96" fill="none" xmlns="http://www.w3.org/2000/svg">
<rect x="0.5" y="0.5" width="95" height="95" fill="black" stroke="#1D1D1B"/>
<path d="M11.0771 84.5075H19.413C24.4859 84.5075 27.29 81.2119 27.29 75.2434C27.29 69.2749 24.231 65.9533 19.1581 65.9533H11.0771V84.5075ZM15.6657 80.6929V69.7679H18.5973C21.4524 69.7679 22.5995 71.8699 22.5995 75.2434C22.5995 78.6169 21.4524 80.6929 18.5973 80.6929H15.6657Z" fill="#FDFCFC"/>
<path d="M29.6235 84.5075H42.3185V80.6929H34.2121V65.9533H29.6235V84.5075Z" fill="#FDFCFC"/>
<path d="M50.8599 84.9227C53.5366 84.9227 55.2446 83.8328 56.1113 82.1461H56.1623L56.6211 84.5075H59.9096V74.6465H51.7012V78.02H55.1681C55.1171 79.8106 53.6386 81.1081 51.5227 81.1081C48.3362 81.1081 47.2911 78.7207 47.2911 75.2174C47.2911 71.7401 48.3362 69.3527 51.3443 69.3527C53.868 69.3527 54.6073 70.8319 54.9387 72.1034H59.6292C59.1958 68.5483 56.4172 65.5381 51.4208 65.5381C45.6851 65.5381 42.6005 69.6382 42.6005 75.2174C42.6005 80.8226 45.6851 84.9227 50.8599 84.9227Z" fill="#FDFCFC"/>
<path d="M60.8522 84.5075H65.7721L66.9448 80.641H73.1903L74.3629 84.5075H79.3848L72.4 65.9533H67.786L60.8522 84.5075ZM67.9899 77.0858L70.0548 70.235H70.1058L72.1706 77.0858H67.9899Z" fill="#FDFCFC"/>
</svg>
