<svg width="130" height="37" viewBox="0 0 130 37" fill="none" xmlns="http://www.w3.org/2000/svg">
<path d="M0.88 36H16.576C26.128 36 31.408 29.904 31.408 18.864C31.408 7.824 25.648 1.68 16.096 1.68H0.88V36ZM9.52 28.944V8.736H15.04C20.416 8.736 22.576 12.624 22.576 18.864C22.576 25.104 20.416 28.944 15.04 28.944H9.52ZM35.8019 36H59.7059V28.944H44.4419V1.68H35.8019V36ZM75.7889 36.768C80.8289 36.768 84.0449 34.752 85.6769 31.632H85.7729L86.6369 36H92.8289V17.76H77.3729V24H83.9009C83.8049 27.312 81.0209 29.712 77.0369 29.712C71.0369 29.712 69.0689 25.296 69.0689 18.816C69.0689 12.384 71.0369 7.968 76.7009 7.968C81.4529 7.968 82.8449 10.704 83.4689 13.056H92.3009C91.4849 6.48 86.2529 0.912 76.8449 0.912C66.0449 0.912 60.2369 8.496 60.2369 18.816C60.2369 29.184 66.0449 36.768 75.7889 36.768ZM94.6037 36H103.868L106.076 28.848H117.836L120.044 36H129.5L116.348 1.68H107.66L94.6037 36ZM108.044 22.272L111.932 9.6H112.028L115.916 22.272H108.044Z" fill="#1D1D1B"/>
</svg>
