<svg width="40" height="40" viewBox="0 0 40 40" fill="none" xmlns="http://www.w3.org/2000/svg">
<path fill-rule="evenodd" clip-rule="evenodd" d="M35.0008 17.2486C35.0008 24.0133 29.6131 29.4972 22.9671 29.4972C20.1151 29.4972 17.4948 28.4873 15.4326 26.7997L7.37779 34.9984L5 32.6623L13.1634 24.3532C11.7593 22.3495 10.9334 19.8972 10.9334 17.2486C10.9334 10.4839 16.321 5 22.9671 5C29.6131 5 35.0008 10.4839 35.0008 17.2486ZM31.6674 17.2486C31.6674 22.2282 27.7168 26.1638 22.9671 26.1638C18.2174 26.1638 14.2667 22.2282 14.2667 17.2486C14.2667 12.269 18.2174 8.33333 22.9671 8.33333C27.7168 8.33333 31.6674 12.269 31.6674 17.2486Z" fill="#1D1D1B"/>
</svg>
